<svg width="24" height="24" viewBox="0 0 24 24" fill="none" xmlns="http://www.w3.org/2000/svg">
<mask id="path-1-inside-1_131_28" fill="white">
<path d="M12 16.5L4.5 8.99995L5.55 7.94995L12 14.4L18.45 7.94995L19.5 8.99995L12 16.5Z"/>
</mask>
<path d="M12 16.5L4.5 8.99995L5.55 7.94995L12 14.4L18.45 7.94995L19.5 8.99995L12 16.5Z" fill="#3A79FF"/>
<path d="M12 16.5L4.92893 23.571L12 30.6421L19.0711 23.571L12 16.5ZM4.5 8.99995L-2.57107 1.92888L-9.64214 8.99995L-2.57107 16.071L4.5 8.99995ZM5.55 7.94995L12.6211 0.878884L5.55 -6.19218L-1.52107 0.878882L5.55 7.94995ZM12 14.4L4.92893 21.471L12 28.5421L19.0711 21.471L12 14.4ZM18.45 7.94995L25.5211 0.878884L18.45 -6.19219L11.3789 0.878884L18.45 7.94995ZM19.5 8.99995L26.5711 16.071L33.6421 8.99995L26.5711 1.92888L19.5 8.99995ZM19.0711 9.42888L11.5711 1.92888L-2.57107 16.071L4.92893 23.571L19.0711 9.42888ZM11.5711 16.071L12.6211 15.021L-1.52107 0.878882L-2.57107 1.92888L11.5711 16.071ZM-1.52107 15.021L4.92893 21.471L19.0711 7.32888L12.6211 0.878884L-1.52107 15.021ZM19.0711 21.471L25.5211 15.021L11.3789 0.878884L4.92893 7.32888L19.0711 21.471ZM11.3789 15.021L12.4289 16.071L26.5711 1.92888L25.5211 0.878884L11.3789 15.021ZM12.4289 1.92888L4.92893 9.42888L19.0711 23.571L26.5711 16.071L12.4289 1.92888Z" fill="#3A79FF" mask="url(#path-1-inside-1_131_28)"/>
</svg>
